M48
; DRILL file {KiCad (6.0.11)} date Fri Mar 31 22:52:28 2023
; FORMAT={-:-/ absolute / inch / decimal}
; #@! TF.CreationDate,2023-03-31T22:52:28+09:00
; #@! TF.GenerationSoftware,Kicad,Pcbnew,(6.0.11)
; #@! TF.FileFunction,Plated,1,2,PTH
FMAT,2
INCH
; #@! TA.AperFunction,Plated,PTH,ViaDrill
T1C0.0157
; #@! TA.AperFunction,Plated,PTH,ComponentDrill
T2C0.0236
; #@! TA.AperFunction,Plated,PTH,ComponentDrill
T3C0.0394
; #@! TA.AperFunction,Plated,PTH,ComponentDrill
T4C0.0866
%
G90
G05
T1
X5.345Y-6.92
X5.43Y-6.94
X5.505Y-7.095
X5.56Y-7.335
X5.585Y-7.095
X5.59Y-7.445
X5.595Y-7.165
X5.625Y-9.8438
X5.66Y-7.785
X5.695Y-7.095
X5.73Y-7.095
X5.76Y-7.275
X5.765Y-7.095
X5.8Y-7.28
X5.8038Y-8.1162
X5.8125Y-9.8438
X5.82Y-7.57
X5.8262Y-8.0938
X5.87Y-8.47
X5.875Y-7.72
X5.8862Y-9.1
X6.095Y-8.47
X6.125Y-7.885
X6.125Y-8.5
X6.2372Y-10.3584
X6.3072Y-10.2684
X6.3697Y-9.8772
X6.4247Y-10.3172
X6.5Y-7.135
X6.5Y-9.4062
X6.5847Y-10.3359
X6.6Y-7.525
X6.6102Y-10.2785
X6.65Y-7.475
X6.7228Y-10.324
X6.7247Y-9.9372
X6.7422Y-10.2034
X6.85Y-7.885
X6.8513Y-9.5013
X6.9321Y-10.2382
X7.065Y-8.635
X7.25Y-7.135
X7.2525Y-9.385
X7.44Y-9.98
X7.6Y-7.885
X7.815Y-8.635
X8.0Y-7.135
X8.0125Y-9.385
X8.0613Y-7.2837
X8.1913Y-9.98
X8.3088Y-8.7837
X8.35Y-7.885
X8.4003Y-8.0337
X8.565Y-8.635
X8.6614Y-9.5856
X8.6919Y-9.6102
X8.7205Y-9.6417
X8.75Y-7.135
X8.7525Y-9.385
X9.0312Y-9.9688
X9.1Y-7.885
X9.315Y-8.635
X9.5Y-7.135
X9.5125Y-9.385
X9.85Y-7.885
X9.9688Y-9.9375
X10.065Y-8.65
X10.25Y-7.135
X10.2525Y-9.385
X10.6Y-7.885
X10.815Y-8.635
X10.8163Y-9.9562
X11.0Y-7.135
X11.0025Y-9.385
X11.35Y-7.885
X11.5612Y-9.9462
X11.565Y-8.635
X11.75Y-7.135
X11.7512Y-9.2062
X11.7512Y-9.642
X12.1Y-7.885
X12.315Y-8.635
X12.5Y-7.135
X12.501Y-9.6437
X12.5012Y-9.1962
X12.85Y-7.885
X13.065Y-8.635
X13.25Y-7.135
X13.25Y-9.6457
X13.2512Y-9.2012
X13.6Y-7.885
X13.815Y-8.635
X14.0Y-7.135
X14.0Y-9.975
X14.0025Y-9.385
X14.35Y-7.885
X14.555Y-8.46
X14.6142Y-8.8209
X14.7116Y-8.7835
X14.7525Y-9.1825
X14.7525Y-9.98
X14.935Y-8.065
X15.26Y-8.3
X15.47Y-7.37
X15.485Y-7.14
X15.5012Y-9.1862
X15.5038Y-9.98
T3
X5.05Y-7.8146
X5.05Y-7.9146
X5.05Y-8.0146
X5.05Y-8.1146
T4
X5.9131Y-7.8925
T2
G00X5.4674Y-6.8216
M15
G01X5.4674Y-6.8452
M16
G05
G00X5.4674Y-6.9763
M15
G01X5.4674Y-7.0196
M16
G05
G00X5.8076Y-6.8216
M15
G01X5.8076Y-6.8452
M16
G05
G00X5.8076Y-6.9763
M15
G01X5.8076Y-7.0196
M16
G05
T4
G00X12.3659Y-10.1484
M15
G01X12.4761Y-10.1484
M16
G05
G00X15.1041Y-7.8925
M15
G01X15.2143Y-7.8925
M16
G05
T0
M30
