%TF.GenerationSoftware,KiCad,Pcbnew,(6.0.11)*%
%TF.CreationDate,2023-03-31T22:52:28+09:00*%
%TF.ProjectId,KiCad_KMKB-JP_Poker,4b694361-645f-44b4-9d4b-422d4a505f50,rev?*%
%TF.SameCoordinates,Original*%
%TF.FileFunction,Paste,Bot*%
%TF.FilePolarity,Positive*%
%FSLAX46Y46*%
G04 Gerber Fmt 4.6, Leading zero omitted, Abs format (unit mm)*
G04 Created by KiCad (PCBNEW (6.0.11)) date 2023-03-31 22:52:28*
%MOMM*%
%LPD*%
G01*
G04 APERTURE LIST*
G04 Aperture macros list*
%AMRoundRect*
0 Rectangle with rounded corners*
0 $1 Rounding radius*
0 $2 $3 $4 $5 $6 $7 $8 $9 X,Y pos of 4 corners*
0 Add a 4 corners polygon primitive as box body*
4,1,4,$2,$3,$4,$5,$6,$7,$8,$9,$2,$3,0*
0 Add four circle primitives for the rounded corners*
1,1,$1+$1,$2,$3*
1,1,$1+$1,$4,$5*
1,1,$1+$1,$6,$7*
1,1,$1+$1,$8,$9*
0 Add four rect primitives between the rounded corners*
20,1,$1+$1,$2,$3,$4,$5,0*
20,1,$1+$1,$4,$5,$6,$7,0*
20,1,$1+$1,$6,$7,$8,$9,0*
20,1,$1+$1,$8,$9,$2,$3,0*%
G04 Aperture macros list end*
%ADD10R,2.550000X2.500000*%
%ADD11R,1.200000X0.900000*%
%ADD12RoundRect,0.218750X0.256250X-0.218750X0.256250X0.218750X-0.256250X0.218750X-0.256250X-0.218750X0*%
%ADD13RoundRect,0.218750X0.218750X0.256250X-0.218750X0.256250X-0.218750X-0.256250X0.218750X-0.256250X0*%
%ADD14RoundRect,0.218750X-0.218750X-0.256250X0.218750X-0.256250X0.218750X0.256250X-0.218750X0.256250X0*%
%ADD15R,1.700000X1.000000*%
%ADD16RoundRect,0.250000X-0.625000X0.375000X-0.625000X-0.375000X0.625000X-0.375000X0.625000X0.375000X0*%
%ADD17R,0.700000X1.000000*%
%ADD18R,0.700000X0.600000*%
%ADD19R,0.600000X1.450000*%
%ADD20R,0.300000X1.450000*%
%ADD21RoundRect,0.250000X0.275000X-0.275000X0.275000X0.275000X-0.275000X0.275000X-0.275000X-0.275000X0*%
%ADD22RoundRect,0.062500X0.062500X-0.475000X0.062500X0.475000X-0.062500X0.475000X-0.062500X-0.475000X0*%
%ADD23RoundRect,0.062500X0.475000X-0.062500X0.475000X0.062500X-0.475000X0.062500X-0.475000X-0.062500X0*%
%ADD24R,1.200000X1.400000*%
%ADD25RoundRect,0.218750X-0.256250X0.218750X-0.256250X-0.218750X0.256250X-0.218750X0.256250X0.218750X0*%
G04 APERTURE END LIST*
D10*
%TO.C,K_.1*%
X317558750Y-236378750D03*
X330485750Y-233838750D03*
%TD*%
%TO.C,K_\u002C1*%
X298508750Y-236378750D03*
X311435750Y-233838750D03*
%TD*%
%TO.C,K_#1*%
X160278750Y-184308750D03*
X147351750Y-186848750D03*
%TD*%
%TO.C,K_#2*%
X165158750Y-179228750D03*
X178085750Y-176688750D03*
%TD*%
%TO.C,K_#3*%
X184208750Y-179228750D03*
X197135750Y-176688750D03*
%TD*%
%TO.C,K_#4*%
X203258750Y-179228750D03*
X216185750Y-176688750D03*
%TD*%
%TO.C,K_#5*%
X222308750Y-179228750D03*
X235235750Y-176688750D03*
%TD*%
%TO.C,K_#6*%
X241358750Y-179228750D03*
X254285750Y-176688750D03*
%TD*%
%TO.C,K_#7*%
X260408750Y-179228750D03*
X273335750Y-176688750D03*
%TD*%
%TO.C,K_#8*%
X279458750Y-179228750D03*
X292385750Y-176688750D03*
%TD*%
%TO.C,K_#9*%
X298508750Y-179228750D03*
X311435750Y-176688750D03*
%TD*%
%TO.C,K_#0_1*%
X317558750Y-179228750D03*
X330485750Y-176688750D03*
%TD*%
%TO.C,K_:1*%
X350896250Y-217328750D03*
X363823250Y-214788750D03*
%TD*%
%TO.C,K_-1*%
X336608750Y-179228750D03*
X349535750Y-176688750D03*
%TD*%
%TO.C,K_/1*%
X336608750Y-236378750D03*
X349535750Y-233838750D03*
%TD*%
%TO.C,K_;1*%
X331846250Y-217328750D03*
X344773250Y-214788750D03*
%TD*%
%TO.C,K_@1*%
X346133750Y-198278750D03*
X359060750Y-195738750D03*
%TD*%
%TO.C,K_]1*%
X369946250Y-217328750D03*
X382873250Y-214788750D03*
%TD*%
%TO.C,K_[1*%
X365183750Y-198278750D03*
X378110750Y-195738750D03*
%TD*%
%TO.C,K_A1*%
X160396250Y-217328750D03*
X173323250Y-214788750D03*
%TD*%
%TO.C,K_B1*%
X241358750Y-236378750D03*
X254285750Y-233838750D03*
%TD*%
%TO.C,K_YEN1*%
X374708750Y-179228750D03*
X387635750Y-176688750D03*
%TD*%
%TO.C,K_C1*%
X203258750Y-236378750D03*
X216185750Y-233838750D03*
%TD*%
%TO.C,K_D1*%
X198496250Y-217328750D03*
X211423250Y-214788750D03*
%TD*%
%TO.C,K_E1*%
X193733750Y-198278750D03*
X206660750Y-195738750D03*
%TD*%
%TO.C,K_ENTER1*%
X401002500Y-203258750D03*
X403542500Y-216185750D03*
%TD*%
%TO.C,K_F1*%
X217546250Y-217328750D03*
X230473250Y-214788750D03*
%TD*%
%TO.C,K_G1*%
X236596250Y-217328750D03*
X249523250Y-214788750D03*
%TD*%
%TO.C,K_ESC1*%
X141228750Y-184308750D03*
X128301750Y-186848750D03*
%TD*%
%TO.C,K_H1*%
X255646250Y-217328750D03*
X268573250Y-214788750D03*
%TD*%
%TO.C,K_I1*%
X288983750Y-198278750D03*
X301910750Y-195738750D03*
%TD*%
%TO.C,K_J1*%
X274696250Y-217328750D03*
X287623250Y-214788750D03*
%TD*%
%TO.C,K_K1*%
X293746250Y-217328750D03*
X306673250Y-214788750D03*
%TD*%
%TO.C,K_L1*%
X312796250Y-217328750D03*
X325723250Y-214788750D03*
%TD*%
%TO.C,K_LALT1*%
X188971250Y-255428750D03*
X201898250Y-252888750D03*
%TD*%
%TO.C,K_LCTRL1*%
X127058750Y-255428750D03*
X139985750Y-252888750D03*
%TD*%
%TO.C,K_LSFT1*%
X136583750Y-236378750D03*
X149510750Y-233838750D03*
%TD*%
%TO.C,K_M1*%
X279458750Y-236378750D03*
X292385750Y-233838750D03*
%TD*%
%TO.C,K_N1*%
X260408750Y-236378750D03*
X273335750Y-233838750D03*
%TD*%
%TO.C,K_O1*%
X308033750Y-198278750D03*
X320960750Y-195738750D03*
%TD*%
%TO.C,K_P1*%
X327083750Y-198278750D03*
X340010750Y-195738750D03*
%TD*%
%TO.C,K_R1*%
X212783750Y-198278750D03*
X225710750Y-195738750D03*
%TD*%
%TO.C,K_LEFT1*%
X355658750Y-255428750D03*
X368585750Y-252888750D03*
%TD*%
%TO.C,K_RIGHT1*%
X393758750Y-255428750D03*
X406685750Y-252888750D03*
%TD*%
%TO.C,K_RSFT1*%
X393758750Y-236378750D03*
X406685750Y-233838750D03*
%TD*%
%TO.C,K_S1*%
X179446250Y-217328750D03*
X192373250Y-214788750D03*
%TD*%
%TO.C,K_T1*%
X231833750Y-198278750D03*
X244760750Y-195738750D03*
%TD*%
%TO.C,K_TAB1*%
X131821250Y-198278750D03*
X144748250Y-195738750D03*
%TD*%
%TO.C,K_U1*%
X269933750Y-198278750D03*
X282860750Y-195738750D03*
%TD*%
%TO.C,K_V1*%
X222308750Y-236378750D03*
X235235750Y-233838750D03*
%TD*%
%TO.C,K_X1*%
X184208750Y-236378750D03*
X197135750Y-233838750D03*
%TD*%
%TO.C,K_Y1*%
X250883750Y-198278750D03*
X263810750Y-195738750D03*
%TD*%
%TO.C,K_Z1*%
X165158750Y-236378750D03*
X178085750Y-233838750D03*
%TD*%
%TO.C,K_DOWN1*%
X374708750Y-255428750D03*
X387635750Y-252888750D03*
%TD*%
%TO.C,K_BKSL1*%
X355658750Y-236378750D03*
X368585750Y-233838750D03*
%TD*%
%TO.C,K_BKSPC1*%
X393758750Y-179228750D03*
X406685750Y-176688750D03*
%TD*%
%TO.C,K_W1*%
X174683750Y-198278750D03*
X187610750Y-195738750D03*
%TD*%
%TO.C,K_Q1*%
X155633750Y-198278750D03*
X168560750Y-195738750D03*
%TD*%
%TO.C,K_CAPS1*%
X134202500Y-217328750D03*
X147129500Y-214788750D03*
%TD*%
%TO.C,K_NHENK1*%
X208021250Y-255428750D03*
X220948250Y-252888750D03*
%TD*%
%TO.C,K_=1*%
X355658750Y-179228750D03*
X368585750Y-176688750D03*
%TD*%
%TO.C,K_HENK1*%
X274696250Y-255428750D03*
X287623250Y-252888750D03*
%TD*%
%TO.C,K_WIN1*%
X293746250Y-255428750D03*
X306673250Y-252888750D03*
%TD*%
%TO.C,K_UP1*%
X374708750Y-236378750D03*
X387635750Y-233838750D03*
%TD*%
%TO.C,K_RSPACE1*%
X253265000Y-255428750D03*
X266192000Y-252888750D03*
%TD*%
%TO.C,K_LSPACE1*%
X229452500Y-255428750D03*
X242379500Y-252888750D03*
%TD*%
D11*
%TO.C,D2*%
X164306250Y-187387500D03*
X164306250Y-184087500D03*
%TD*%
%TO.C,D3*%
X170656250Y-204850000D03*
X170656250Y-201550000D03*
%TD*%
%TO.C,D4*%
X175418750Y-223900000D03*
X175418750Y-220600000D03*
%TD*%
%TO.C,D5*%
X180181250Y-242950000D03*
X180181250Y-239650000D03*
%TD*%
%TO.C,D6*%
X142081250Y-261206250D03*
X142081250Y-257906250D03*
%TD*%
%TO.C,D8*%
X173831250Y-204850000D03*
X173831250Y-201550000D03*
%TD*%
%TO.C,D11*%
X180181250Y-185006250D03*
X180181250Y-181706250D03*
%TD*%
%TO.C,D13*%
X194468750Y-223106250D03*
X194468750Y-219806250D03*
%TD*%
%TO.C,D10*%
X183356250Y-242950000D03*
X183356250Y-239650000D03*
%TD*%
%TO.C,D15*%
X203993750Y-261206250D03*
X203993750Y-257906250D03*
%TD*%
%TO.C,D16*%
X199231250Y-185006250D03*
X199231250Y-181706250D03*
%TD*%
%TO.C,D17*%
X208756250Y-204056250D03*
X208756250Y-200756250D03*
%TD*%
%TO.C,D18*%
X213518750Y-223106250D03*
X213518750Y-219806250D03*
%TD*%
%TO.C,D14*%
X199231250Y-242156250D03*
X199231250Y-238856250D03*
%TD*%
%TO.C,D21*%
X218281250Y-185006250D03*
X218281250Y-181706250D03*
%TD*%
%TO.C,D22*%
X227806250Y-204056250D03*
X227806250Y-200756250D03*
%TD*%
%TO.C,D23*%
X232664000Y-223138000D03*
X232664000Y-219838000D03*
%TD*%
%TO.C,D19*%
X218281250Y-242156250D03*
X218281250Y-238856250D03*
%TD*%
%TO.C,D26*%
X237331250Y-185006250D03*
X237331250Y-181706250D03*
%TD*%
%TO.C,D27*%
X246856250Y-204056250D03*
X246856250Y-200756250D03*
%TD*%
%TO.C,D24*%
X237331250Y-242156250D03*
X237331250Y-238856250D03*
%TD*%
%TO.C,D32*%
X256381250Y-185006250D03*
X256381250Y-181706250D03*
%TD*%
%TO.C,D33*%
X265906250Y-204056250D03*
X265906250Y-200756250D03*
%TD*%
%TO.C,D34*%
X270183000Y-223061000D03*
X270183000Y-219761000D03*
%TD*%
%TO.C,D29*%
X256381250Y-242156250D03*
X256381250Y-238856250D03*
%TD*%
%TO.C,D37*%
X275431250Y-185006250D03*
X275431250Y-181706250D03*
%TD*%
%TO.C,D38*%
X284956250Y-204056250D03*
X284956250Y-200756250D03*
%TD*%
%TO.C,D39*%
X289718750Y-223106250D03*
X289718750Y-219806250D03*
%TD*%
%TO.C,D35*%
X275431250Y-242156250D03*
X275431250Y-238856250D03*
%TD*%
%TO.C,D41*%
X294481250Y-185006250D03*
X294481250Y-181706250D03*
%TD*%
%TO.C,D42*%
X304006250Y-204056250D03*
X304006250Y-200756250D03*
%TD*%
%TO.C,D43*%
X308768750Y-223106250D03*
X308768750Y-219806250D03*
%TD*%
%TO.C,D40*%
X294481250Y-242156250D03*
X294481250Y-238856250D03*
%TD*%
%TO.C,D45*%
X313531250Y-185006250D03*
X313531250Y-181706250D03*
%TD*%
%TO.C,D46*%
X323056250Y-204056250D03*
X323056250Y-200756250D03*
%TD*%
%TO.C,D47*%
X327818750Y-223106250D03*
X327818750Y-219806250D03*
%TD*%
%TO.C,D44*%
X313531250Y-242156250D03*
X313531250Y-238856250D03*
%TD*%
%TO.C,D49*%
X332581250Y-185006250D03*
X332581250Y-181706250D03*
%TD*%
%TO.C,D50*%
X342106250Y-204056250D03*
X342106250Y-200756250D03*
%TD*%
%TO.C,D51*%
X346868750Y-223106250D03*
X346868750Y-219806250D03*
%TD*%
%TO.C,D48*%
X332581250Y-242156250D03*
X332581250Y-238856250D03*
%TD*%
%TO.C,D53*%
X351631250Y-185006250D03*
X351631250Y-181706250D03*
%TD*%
%TO.C,D54*%
X361156250Y-204850000D03*
X361156250Y-201550000D03*
%TD*%
%TO.C,D55*%
X365918750Y-223900000D03*
X365918750Y-220600000D03*
%TD*%
%TO.C,D52*%
X351631250Y-242156250D03*
X351631250Y-238856250D03*
%TD*%
%TO.C,D57*%
X370681250Y-261206250D03*
X370681250Y-257906250D03*
%TD*%
%TO.C,D59*%
X364331250Y-204850000D03*
X364331250Y-201550000D03*
%TD*%
%TO.C,D66*%
X393843750Y-245568750D03*
X393843750Y-242268750D03*
%TD*%
%TO.C,D60*%
X384968750Y-223106250D03*
X384968750Y-219806250D03*
%TD*%
%TO.C,D65*%
X369093750Y-223900000D03*
X369093750Y-220600000D03*
%TD*%
%TO.C,D67*%
X392509375Y-262156250D03*
X392509375Y-258856250D03*
%TD*%
%TO.C,D63*%
X389731250Y-185800000D03*
X389731250Y-182500000D03*
%TD*%
%TO.C,D58*%
X370681250Y-185006250D03*
X370681250Y-181706250D03*
%TD*%
%TO.C,D64*%
X392938000Y-185900000D03*
X392938000Y-182600000D03*
%TD*%
%TO.C,D56*%
X370681250Y-242156250D03*
X370681250Y-238856250D03*
%TD*%
%TO.C,D62*%
X389731250Y-261206250D03*
X389731250Y-257906250D03*
%TD*%
D12*
%TO.C,R6*%
X171823875Y-254905750D03*
X171823875Y-253330750D03*
%TD*%
D13*
%TO.C,C4*%
X161816375Y-252022750D03*
X160241375Y-252022750D03*
%TD*%
D14*
%TO.C,R3*%
X168382075Y-263332100D03*
X169957075Y-263332100D03*
%TD*%
D15*
%TO.C,SW1*%
X178214750Y-258732000D03*
X184514750Y-258732000D03*
X184514750Y-262532000D03*
X178214750Y-262532000D03*
%TD*%
D11*
%TO.C,D12*%
X189706250Y-204056250D03*
X189706250Y-200756250D03*
%TD*%
%TO.C,D20*%
X223043750Y-261206250D03*
X223043750Y-257906250D03*
%TD*%
%TO.C,D28*%
X251460000Y-223138000D03*
X251460000Y-219838000D03*
%TD*%
%TO.C,D9*%
X178593750Y-223900000D03*
X178593750Y-220600000D03*
%TD*%
%TO.C,D1*%
X152400000Y-193737500D03*
X152400000Y-190437500D03*
%TD*%
D16*
%TO.C,F1*%
X149225000Y-190687500D03*
X149225000Y-193487500D03*
%TD*%
%TO.C,L1*%
X149987000Y-175384000D03*
X149987000Y-178184000D03*
%TD*%
D12*
%TO.C,R4*%
X134874000Y-178333500D03*
X134874000Y-176758500D03*
%TD*%
%TO.C,R5*%
X136779000Y-178333500D03*
X136779000Y-176758500D03*
%TD*%
D17*
%TO.C,U2*%
X145018000Y-188353000D03*
D18*
X145018000Y-190053000D03*
X143018000Y-190053000D03*
X143018000Y-188153000D03*
%TD*%
D19*
%TO.C,USB1*%
X139967500Y-178662400D03*
X140742500Y-178662400D03*
D20*
X141442500Y-178662400D03*
X141942500Y-178662400D03*
X142442500Y-178662400D03*
X142942500Y-178662400D03*
X143442500Y-178662400D03*
X143942500Y-178662400D03*
X144442500Y-178662400D03*
X144942500Y-178662400D03*
D19*
X145642500Y-178662400D03*
X146417500Y-178662400D03*
%TD*%
D21*
%TO.C,U1*%
X162459375Y-256818750D03*
X163759375Y-259418750D03*
X166359375Y-256818750D03*
X166359375Y-255518750D03*
X165059375Y-255518750D03*
X163759375Y-258118750D03*
X162459375Y-259418750D03*
X163759375Y-255518750D03*
X165059375Y-259418750D03*
X165059375Y-256818750D03*
X163759375Y-256818750D03*
X162459375Y-258118750D03*
X166359375Y-258118750D03*
X165059375Y-258118750D03*
X166359375Y-259418750D03*
X162459375Y-255518750D03*
D22*
X166909375Y-260806250D03*
X166409375Y-260806250D03*
X165909375Y-260806250D03*
X165409375Y-260806250D03*
X164909375Y-260806250D03*
X164409375Y-260806250D03*
X163909375Y-260806250D03*
X163409375Y-260806250D03*
X162909375Y-260806250D03*
X162409375Y-260806250D03*
X161909375Y-260806250D03*
D23*
X161071875Y-259968750D03*
X161071875Y-259468750D03*
X161071875Y-258968750D03*
X161071875Y-258468750D03*
X161071875Y-257968750D03*
X161071875Y-257468750D03*
X161071875Y-256968750D03*
X161071875Y-256468750D03*
X161071875Y-255968750D03*
X161071875Y-255468750D03*
X161071875Y-254968750D03*
D22*
X161909375Y-254131250D03*
X162409375Y-254131250D03*
X162909375Y-254131250D03*
X163409375Y-254131250D03*
X163909375Y-254131250D03*
X164409375Y-254131250D03*
X164909375Y-254131250D03*
X165409375Y-254131250D03*
X165909375Y-254131250D03*
X166409375Y-254131250D03*
X166909375Y-254131250D03*
D23*
X167746875Y-254968750D03*
X167746875Y-255468750D03*
X167746875Y-255968750D03*
X167746875Y-256468750D03*
X167746875Y-256968750D03*
X167746875Y-257468750D03*
X167746875Y-257968750D03*
X167746875Y-258468750D03*
X167746875Y-258968750D03*
X167746875Y-259468750D03*
X167746875Y-259968750D03*
%TD*%
D24*
%TO.C,Y1*%
X157306875Y-256637750D03*
X157306875Y-258837750D03*
X155606875Y-258837750D03*
X155606875Y-256637750D03*
%TD*%
D13*
%TO.C,C2*%
X153561375Y-258753750D03*
X151986375Y-258753750D03*
%TD*%
D12*
%TO.C,C7*%
X169918875Y-261065250D03*
X169918875Y-259490250D03*
%TD*%
D25*
%TO.C,C5*%
X169918875Y-253330750D03*
X169918875Y-254905750D03*
%TD*%
D13*
%TO.C,C3*%
X164483375Y-263325750D03*
X162908375Y-263325750D03*
%TD*%
%TO.C,C6*%
X159276375Y-261928750D03*
X157701375Y-261928750D03*
%TD*%
%TO.C,C1*%
X153561375Y-256721750D03*
X151986375Y-256721750D03*
%TD*%
D11*
%TO.C,D7*%
X167481250Y-187387500D03*
X167481250Y-184087500D03*
%TD*%
D12*
%TO.C,R1*%
X147236336Y-257576164D03*
X147236336Y-256001164D03*
%TD*%
%TO.C,R2*%
X145299586Y-257576164D03*
X145299586Y-256001164D03*
%TD*%
D11*
%TO.C,D61*%
X390128125Y-245568750D03*
X390128125Y-242268750D03*
%TD*%
%TO.C,D25*%
X245268750Y-261268750D03*
X245268750Y-257968750D03*
%TD*%
%TO.C,D36*%
X309165625Y-261200000D03*
X309165625Y-257900000D03*
%TD*%
%TO.C,D31*%
X290075000Y-261281250D03*
X290075000Y-257981250D03*
%TD*%
%TO.C,D30*%
X270075000Y-261000000D03*
X270075000Y-257700000D03*
%TD*%
M02*
