M48
; DRILL file {KiCad (6.0.11)} date Fri Mar 31 22:05:51 2023
; FORMAT={-:-/ absolute / metric / decimal}
; #@! TF.CreationDate,2023-03-31T22:05:51+09:00
; #@! TF.GenerationSoftware,Kicad,Pcbnew,(6.0.11)
; #@! TF.FileFunction,Plated,1,2,PTH
FMAT,2
METRIC
; #@! TA.AperFunction,Plated,PTH,ViaDrill
T1C0.400
; #@! TA.AperFunction,Plated,PTH,ComponentDrill
T2C0.600
; #@! TA.AperFunction,Plated,PTH,ComponentDrill
T3C1.000
; #@! TA.AperFunction,Plated,PTH,ComponentDrill
T4C2.200
%
G90
G05
T1
X135.763Y-175.768
X137.922Y-176.276
X139.827Y-180.213
X141.224Y-186.309
X141.859Y-180.213
X141.986Y-189.103
X142.113Y-181.991
X142.875Y-250.031
X143.764Y-197.739
X144.653Y-180.213
X145.542Y-180.213
X146.304Y-184.785
X146.431Y-180.213
X147.32Y-184.912
X147.417Y-206.151
X147.637Y-250.031
X147.828Y-192.278
X147.985Y-205.583
X149.098Y-215.138
X149.225Y-196.088
X149.511Y-231.14
X154.813Y-215.138
X155.575Y-200.279
X155.575Y-215.9
X158.425Y-263.103
X160.203Y-260.817
X161.791Y-250.88
X163.188Y-262.056
X165.1Y-181.229
X165.1Y-238.919
X167.252Y-262.532
X167.64Y-191.135
X167.9Y-261.075
X168.91Y-189.865
X170.76Y-262.23
X170.808Y-252.404
X171.252Y-259.166
X173.99Y-200.279
X174.022Y-241.332
X176.075Y-260.05
X179.451Y-219.329
X184.15Y-181.229
X184.213Y-238.379
X188.976Y-253.492
X193.04Y-200.279
X198.501Y-219.329
X203.2Y-181.229
X203.517Y-238.379
X204.756Y-185.006
X208.058Y-253.492
X211.044Y-223.106
X212.09Y-200.279
X213.369Y-204.056
X217.551Y-219.329
X220.0Y-243.475
X220.775Y-244.1
X221.5Y-244.9
X222.25Y-181.229
X222.313Y-238.379
X229.394Y-253.206
X231.14Y-200.279
X236.601Y-219.329
X241.3Y-181.229
X241.617Y-238.379
X250.19Y-200.279
X253.206Y-252.412
X255.651Y-219.71
X260.35Y-181.229
X260.413Y-238.379
X269.24Y-200.279
X274.701Y-219.329
X274.733Y-252.889
X279.4Y-181.229
X279.464Y-238.379
X288.29Y-200.279
X293.656Y-252.635
X293.751Y-219.329
X298.45Y-181.229
X298.482Y-233.839
X298.482Y-244.907
X307.34Y-200.279
X312.801Y-219.329
X317.5Y-181.229
X317.525Y-244.95
X317.532Y-233.585
X326.39Y-200.279
X331.851Y-219.329
X336.55Y-181.229
X336.55Y-245.0
X336.582Y-233.712
X345.44Y-200.279
X350.901Y-219.329
X355.6Y-181.229
X355.6Y-253.365
X355.663Y-238.379
X364.49Y-200.279
X369.697Y-214.884
X371.2Y-224.05
X373.675Y-223.1
X374.714Y-233.236
X374.714Y-253.492
X379.349Y-204.851
X387.604Y-210.82
X392.938Y-187.198
X393.319Y-181.356
X393.732Y-233.331
X393.795Y-253.492
T3
X128.27Y-198.491
X128.27Y-201.031
X128.27Y-203.571
X128.27Y-206.111
T4
X150.194Y-200.469
T2
G00X138.873Y-173.267
M15
G01X138.873Y-173.867
M16
G05
G00X138.873Y-177.197
M15
G01X138.873Y-178.297
M16
G05
G00X147.512Y-173.267
M15
G01X147.512Y-173.867
M16
G05
G00X147.512Y-177.197
M15
G01X147.512Y-178.297
M16
G05
T4
G00X314.094Y-257.769
M15
G01X316.894Y-257.769
M16
G05
G00X383.644Y-200.469
M15
G01X386.444Y-200.469
M16
G05
T0
M30
