M48
; DRILL file {KiCad (6.0.11)} date Fri Mar 31 22:05:51 2023
; FORMAT={-:-/ absolute / metric / decimal}
; #@! TF.CreationDate,2023-03-31T22:05:51+09:00
; #@! TF.GenerationSoftware,Kicad,Pcbnew,(6.0.11)
; #@! TF.FileFunction,NonPlated,1,2,NPTH
FMAT,2
METRIC
; #@! TA.AperFunction,NonPlated,NPTH,ComponentDrill
T1C0.650
; #@! TA.AperFunction,NonPlated,NPTH,ComponentDrill
T2C1.750
; #@! TA.AperFunction,NonPlated,NPTH,ComponentDrill
T3C3.000
; #@! TA.AperFunction,NonPlated,NPTH,ComponentDrill
T4C3.048
; #@! TA.AperFunction,NonPlated,NPTH,ComponentDrill
T5C3.988
%
G90
G05
T1
X140.302Y-177.217
X146.082Y-177.217
T2
X129.064Y-181.769
X129.064Y-257.969
X133.826Y-200.819
X136.207Y-219.869
X138.589Y-238.919
X139.224Y-181.769
X139.224Y-257.969
X143.986Y-200.819
X146.368Y-219.869
X148.114Y-181.769
X148.749Y-238.919
X157.639Y-200.819
X158.274Y-181.769
X162.401Y-219.869
X167.164Y-181.769
X167.164Y-238.919
X167.799Y-200.819
X172.561Y-219.869
X176.689Y-200.819
X177.324Y-181.769
X177.324Y-238.919
X181.451Y-219.869
X186.214Y-181.769
X186.214Y-238.919
X186.849Y-200.819
X190.976Y-257.969
X191.611Y-219.869
X195.739Y-200.819
X196.374Y-181.769
X196.374Y-238.919
X200.501Y-219.869
X201.136Y-257.969
X205.264Y-181.769
X205.264Y-238.919
X205.899Y-200.819
X210.026Y-257.969
X210.661Y-219.869
X214.789Y-200.819
X215.424Y-181.769
X215.424Y-238.919
X219.551Y-219.869
X220.186Y-257.969
X224.314Y-181.769
X224.314Y-238.919
X224.949Y-200.819
X229.711Y-219.869
X231.457Y-257.969
X233.839Y-200.819
X234.474Y-181.769
X234.474Y-238.919
X238.601Y-219.869
X241.617Y-257.969
X243.364Y-181.769
X243.364Y-238.919
X243.999Y-200.819
X248.761Y-219.869
X252.889Y-200.819
X253.524Y-181.769
X253.524Y-238.919
X255.27Y-257.969
X257.651Y-219.869
X262.414Y-181.769
X262.414Y-238.919
X263.049Y-200.819
X265.43Y-257.969
X267.811Y-219.869
X271.939Y-200.819
X272.574Y-181.769
X272.574Y-238.919
X276.701Y-219.869
X276.701Y-257.969
X281.464Y-181.769
X281.464Y-238.919
X282.099Y-200.819
X286.861Y-219.869
X286.861Y-257.969
X290.989Y-200.819
X291.624Y-181.769
X291.624Y-238.919
X295.751Y-219.869
X295.751Y-257.969
X300.514Y-181.769
X300.514Y-238.919
X301.149Y-200.819
X305.911Y-219.869
X305.911Y-257.969
X310.039Y-200.819
X310.674Y-181.769
X310.674Y-238.919
X314.801Y-219.869
X319.564Y-181.769
X319.564Y-238.919
X320.199Y-200.819
X324.961Y-219.869
X329.089Y-200.819
X329.724Y-181.769
X329.724Y-238.919
X333.851Y-219.869
X338.614Y-181.769
X338.614Y-238.919
X339.249Y-200.819
X344.011Y-219.869
X348.139Y-200.819
X348.774Y-181.769
X348.774Y-238.919
X352.901Y-219.869
X357.664Y-181.769
X357.664Y-238.919
X357.664Y-257.969
X358.299Y-200.819
X363.061Y-219.869
X367.189Y-200.819
X367.824Y-181.769
X367.824Y-238.919
X367.824Y-257.969
X371.951Y-219.869
X376.714Y-181.769
X376.714Y-238.919
X376.714Y-257.969
X377.349Y-200.819
X382.111Y-219.869
X386.874Y-181.769
X386.874Y-238.919
X386.874Y-257.969
X395.764Y-181.769
X395.764Y-238.919
X395.764Y-257.969
X398.462Y-205.264
X398.462Y-215.424
X405.924Y-181.769
X405.924Y-238.919
X405.924Y-257.969
T3
X130.334Y-255.429
X131.604Y-186.849
X135.096Y-198.279
X136.684Y-252.889
X137.477Y-217.329
X137.954Y-184.309
X139.859Y-236.379
X141.446Y-195.739
X143.827Y-214.789
X146.209Y-233.839
X150.654Y-186.849
X157.004Y-184.309
X158.909Y-198.279
X163.671Y-217.329
X165.259Y-195.739
X168.434Y-179.229
X168.434Y-236.379
X170.021Y-214.789
X174.784Y-176.689
X174.784Y-233.839
X177.959Y-198.279
X182.721Y-217.329
X184.309Y-195.739
X187.484Y-179.229
X187.484Y-236.379
X189.071Y-214.789
X192.246Y-255.429
X193.834Y-176.689
X193.834Y-233.839
X197.009Y-198.279
X198.596Y-252.889
X201.771Y-217.329
X203.359Y-195.739
X206.534Y-179.229
X206.534Y-236.379
X208.121Y-214.789
X211.296Y-255.429
X212.884Y-176.689
X212.884Y-233.839
X216.059Y-198.279
X217.646Y-252.889
X220.821Y-217.329
X222.409Y-195.739
X225.584Y-179.229
X225.584Y-236.379
X227.171Y-214.789
X231.934Y-176.689
X231.934Y-233.839
X232.727Y-255.429
X235.109Y-198.279
X239.077Y-252.889
X239.871Y-217.329
X241.459Y-195.739
X244.634Y-179.229
X244.634Y-236.379
X246.221Y-214.789
X250.984Y-176.689
X250.984Y-233.839
X254.159Y-198.279
X256.54Y-255.429
X258.921Y-217.329
X260.509Y-195.739
X262.89Y-252.889
X263.684Y-179.229
X263.684Y-236.379
X265.271Y-214.789
X270.034Y-176.689
X270.034Y-233.839
X273.209Y-198.279
X277.971Y-217.329
X277.971Y-255.429
X279.559Y-195.739
X282.734Y-179.229
X282.734Y-236.379
X284.321Y-214.789
X284.321Y-252.889
X289.084Y-176.689
X289.084Y-233.839
X292.259Y-198.279
X297.021Y-217.329
X297.021Y-255.429
X298.609Y-195.739
X301.784Y-179.229
X301.784Y-236.379
X303.371Y-214.789
X303.371Y-252.889
X308.134Y-176.689
X308.134Y-233.839
X311.309Y-198.279
X316.071Y-217.329
X317.659Y-195.739
X320.834Y-179.229
X320.834Y-236.379
X322.421Y-214.789
X327.184Y-176.689
X327.184Y-233.839
X330.359Y-198.279
X335.121Y-217.329
X336.709Y-195.739
X339.884Y-179.229
X339.884Y-236.379
X341.471Y-214.789
X346.234Y-176.689
X346.234Y-233.839
X349.409Y-198.279
X354.171Y-217.329
X355.759Y-195.739
X358.934Y-179.229
X358.934Y-236.379
X358.934Y-255.429
X360.521Y-214.789
X365.284Y-176.689
X365.284Y-233.839
X365.284Y-252.889
X368.459Y-198.279
X373.221Y-217.329
X374.809Y-195.739
X377.984Y-179.229
X377.984Y-236.379
X377.984Y-255.429
X379.571Y-214.789
X384.334Y-176.689
X384.334Y-233.839
X384.334Y-252.889
X397.034Y-179.229
X397.034Y-236.379
X397.034Y-255.429
X401.002Y-206.534
X403.384Y-176.689
X403.384Y-233.839
X403.384Y-252.889
X403.542Y-212.884
T4
X131.731Y-231.934
X155.607Y-231.934
X391.477Y-198.406
X391.477Y-222.282
T5
X131.731Y-247.174
X134.144Y-181.769
X134.144Y-257.969
X138.906Y-200.819
X141.287Y-219.869
X143.669Y-238.919
X153.194Y-181.769
X155.607Y-247.174
X162.719Y-200.819
X167.481Y-219.869
X172.244Y-181.769
X172.244Y-238.919
X181.769Y-200.819
X186.531Y-219.869
X191.294Y-181.769
X191.294Y-238.919
X196.056Y-257.969
X200.819Y-200.819
X205.581Y-219.869
X210.344Y-181.769
X210.344Y-238.919
X215.106Y-257.969
X219.869Y-200.819
X224.631Y-219.869
X229.394Y-181.769
X229.394Y-238.919
X236.537Y-257.969
X238.919Y-200.819
X243.681Y-219.869
X248.444Y-181.769
X248.444Y-238.919
X257.969Y-200.819
X260.35Y-257.969
X262.731Y-219.869
X267.494Y-181.769
X267.494Y-238.919
X277.019Y-200.819
X281.781Y-219.869
X281.781Y-257.969
X286.544Y-181.769
X286.544Y-238.919
X296.069Y-200.819
X300.831Y-219.869
X300.831Y-257.969
X305.594Y-181.769
X305.594Y-238.919
X315.119Y-200.819
X319.881Y-219.869
X324.644Y-181.769
X324.644Y-238.919
X334.169Y-200.819
X338.931Y-219.869
X343.694Y-181.769
X343.694Y-238.919
X353.219Y-200.819
X357.981Y-219.869
X362.744Y-181.769
X362.744Y-238.919
X362.744Y-257.969
X372.269Y-200.819
X377.031Y-219.869
X381.794Y-181.769
X381.794Y-238.919
X381.794Y-257.969
X398.462Y-210.344
X400.844Y-181.769
X400.844Y-238.919
X400.844Y-257.969
X406.717Y-198.406
X406.717Y-222.282
T0
M30
