G04 #@! TF.GenerationSoftware,KiCad,Pcbnew,(6.0.11)*
G04 #@! TF.CreationDate,2023-03-31T22:05:11+09:00*
G04 #@! TF.ProjectId,KiCad_KMKB-JP_Poker,4b694361-645f-44b4-9d4b-422d4a505f50,rev?*
G04 #@! TF.SameCoordinates,Original*
G04 #@! TF.FileFunction,Legend,Top*
G04 #@! TF.FilePolarity,Positive*
%FSLAX46Y46*%
G04 Gerber Fmt 4.6, Leading zero omitted, Abs format (unit mm)*
G04 Created by KiCad (PCBNEW (6.0.11)) date 2023-03-31 22:05:11*
%MOMM*%
%LPD*%
G01*
G04 APERTURE LIST*
%ADD10C,0.750000*%
%ADD11C,0.300000*%
%ADD12C,0.150000*%
%ADD13C,0.120000*%
G04 APERTURE END LIST*
D10*
X147163428Y-258405142D02*
X147163428Y-255405142D01*
X148877714Y-258405142D02*
X147592000Y-256690857D01*
X148877714Y-255405142D02*
X147163428Y-257119428D01*
X150163428Y-258405142D02*
X150163428Y-255405142D01*
X151163428Y-257548000D01*
X152163428Y-255405142D01*
X152163428Y-258405142D01*
X153592000Y-258405142D02*
X153592000Y-255405142D01*
X155306285Y-258405142D02*
X154020571Y-256690857D01*
X155306285Y-255405142D02*
X153592000Y-257119428D01*
X157592000Y-256833714D02*
X158020571Y-256976571D01*
X158163428Y-257119428D01*
X158306285Y-257405142D01*
X158306285Y-257833714D01*
X158163428Y-258119428D01*
X158020571Y-258262285D01*
X157734857Y-258405142D01*
X156592000Y-258405142D01*
X156592000Y-255405142D01*
X157592000Y-255405142D01*
X157877714Y-255548000D01*
X158020571Y-255690857D01*
X158163428Y-255976571D01*
X158163428Y-256262285D01*
X158020571Y-256548000D01*
X157877714Y-256690857D01*
X157592000Y-256833714D01*
X156592000Y-256833714D01*
X159592000Y-257262285D02*
X161877714Y-257262285D01*
X164163428Y-255405142D02*
X164163428Y-257548000D01*
X164020571Y-257976571D01*
X163734857Y-258262285D01*
X163306285Y-258405142D01*
X163020571Y-258405142D01*
X165592000Y-258405142D02*
X165592000Y-255405142D01*
X166734857Y-255405142D01*
X167020571Y-255548000D01*
X167163428Y-255690857D01*
X167306285Y-255976571D01*
X167306285Y-256405142D01*
X167163428Y-256690857D01*
X167020571Y-256833714D01*
X166734857Y-256976571D01*
X165592000Y-256976571D01*
X167877714Y-258690857D02*
X170163428Y-258690857D01*
X170877714Y-258405142D02*
X170877714Y-255405142D01*
X172020571Y-255405142D01*
X172306285Y-255548000D01*
X172449142Y-255690857D01*
X172592000Y-255976571D01*
X172592000Y-256405142D01*
X172449142Y-256690857D01*
X172306285Y-256833714D01*
X172020571Y-256976571D01*
X170877714Y-256976571D01*
X174306285Y-258405142D02*
X174020571Y-258262285D01*
X173877714Y-258119428D01*
X173734857Y-257833714D01*
X173734857Y-256976571D01*
X173877714Y-256690857D01*
X174020571Y-256548000D01*
X174306285Y-256405142D01*
X174734857Y-256405142D01*
X175020571Y-256548000D01*
X175163428Y-256690857D01*
X175306285Y-256976571D01*
X175306285Y-257833714D01*
X175163428Y-258119428D01*
X175020571Y-258262285D01*
X174734857Y-258405142D01*
X174306285Y-258405142D01*
X176592000Y-258405142D02*
X176592000Y-255405142D01*
X176877714Y-257262285D02*
X177734857Y-258405142D01*
X177734857Y-256405142D02*
X176592000Y-257548000D01*
X180163428Y-258262285D02*
X179877714Y-258405142D01*
X179306285Y-258405142D01*
X179020571Y-258262285D01*
X178877714Y-257976571D01*
X178877714Y-256833714D01*
X179020571Y-256548000D01*
X179306285Y-256405142D01*
X179877714Y-256405142D01*
X180163428Y-256548000D01*
X180306285Y-256833714D01*
X180306285Y-257119428D01*
X178877714Y-257405142D01*
X181592000Y-258405142D02*
X181592000Y-256405142D01*
X181592000Y-256976571D02*
X181734857Y-256690857D01*
X181877714Y-256548000D01*
X182163428Y-256405142D01*
X182449142Y-256405142D01*
D11*
X351971428Y-273812000D02*
X351826285Y-273739428D01*
X351608571Y-273739428D01*
X351390857Y-273812000D01*
X351245714Y-273957142D01*
X351173142Y-274102285D01*
X351100571Y-274392571D01*
X351100571Y-274610285D01*
X351173142Y-274900571D01*
X351245714Y-275045714D01*
X351390857Y-275190857D01*
X351608571Y-275263428D01*
X351753714Y-275263428D01*
X351971428Y-275190857D01*
X352044000Y-275118285D01*
X352044000Y-274610285D01*
X351753714Y-274610285D01*
X352914857Y-273739428D02*
X352914857Y-274102285D01*
X352552000Y-273957142D02*
X352914857Y-274102285D01*
X353277714Y-273957142D01*
X352697142Y-274392571D02*
X352914857Y-274102285D01*
X353132571Y-274392571D01*
X354076000Y-273739428D02*
X354076000Y-274102285D01*
X353713142Y-273957142D02*
X354076000Y-274102285D01*
X354438857Y-273957142D01*
X353858285Y-274392571D02*
X354076000Y-274102285D01*
X354293714Y-274392571D01*
X355237142Y-273739428D02*
X355237142Y-274102285D01*
X354874285Y-273957142D02*
X355237142Y-274102285D01*
X355600000Y-273957142D01*
X355019428Y-274392571D02*
X355237142Y-274102285D01*
X355454857Y-274392571D01*
D12*
X127936666Y-207893380D02*
X127936666Y-208607666D01*
X127889047Y-208750523D01*
X127793809Y-208845761D01*
X127650952Y-208893380D01*
X127555714Y-208893380D01*
X128936666Y-208893380D02*
X128365238Y-208893380D01*
X128650952Y-208893380D02*
X128650952Y-207893380D01*
X128555714Y-208036238D01*
X128460476Y-208131476D01*
X128365238Y-208179095D01*
G36*
X328598797Y-262629664D02*
G01*
X328789105Y-262630953D01*
X328961236Y-262633566D01*
X329108454Y-262637546D01*
X329224021Y-262642936D01*
X329301198Y-262649780D01*
X329331409Y-262656671D01*
X329410206Y-262725619D01*
X329462734Y-262819145D01*
X329484584Y-262922060D01*
X329471345Y-263019171D01*
X329449158Y-263062293D01*
X329425802Y-263094009D01*
X329401070Y-263120212D01*
X329370166Y-263141425D01*
X329328291Y-263158171D01*
X329270648Y-263170974D01*
X329192439Y-263180356D01*
X329088868Y-263186840D01*
X328955135Y-263190950D01*
X328786444Y-263193208D01*
X328577997Y-263194138D01*
X328324997Y-263194263D01*
X328239111Y-263194221D01*
X327977436Y-263193831D01*
X327761775Y-263192869D01*
X327587344Y-263191165D01*
X327449359Y-263188545D01*
X327343036Y-263184839D01*
X327263590Y-263179875D01*
X327206238Y-263173480D01*
X327166195Y-263165484D01*
X327138676Y-263155715D01*
X327136451Y-263154645D01*
X327050961Y-263088588D01*
X327003492Y-263001521D01*
X326993018Y-262904925D01*
X327018508Y-262810281D01*
X327078936Y-262729070D01*
X327173271Y-262672773D01*
X327179825Y-262670492D01*
X327230521Y-262661815D01*
X327323680Y-262654072D01*
X327452564Y-262647306D01*
X327610437Y-262641561D01*
X327790559Y-262636881D01*
X327986194Y-262633307D01*
X328190604Y-262630884D01*
X328397051Y-262629656D01*
X328598797Y-262629664D01*
G37*
G36*
X327434345Y-251592359D02*
G01*
X327588874Y-251605121D01*
X327741354Y-251624005D01*
X327879448Y-251647237D01*
X327990821Y-251673041D01*
X328060715Y-251698360D01*
X328141785Y-251757420D01*
X328183430Y-251836421D01*
X328193400Y-251928616D01*
X328184388Y-251985445D01*
X328159463Y-252080307D01*
X328121785Y-252204154D01*
X328074517Y-252347938D01*
X328020821Y-252502609D01*
X327963859Y-252659119D01*
X327906794Y-252808419D01*
X327852787Y-252941462D01*
X327805001Y-253049198D01*
X327793513Y-253072900D01*
X327743700Y-253183747D01*
X327699035Y-253301429D01*
X327669979Y-253397549D01*
X327610814Y-253581880D01*
X327523640Y-253740862D01*
X327407705Y-253883836D01*
X327336252Y-253963943D01*
X327270613Y-254042876D01*
X327230943Y-254095301D01*
X327181053Y-254156330D01*
X327131998Y-254199831D01*
X327124833Y-254204145D01*
X327092843Y-254216023D01*
X327078943Y-254198295D01*
X327075805Y-254140724D01*
X327075800Y-254135633D01*
X327058589Y-254042762D01*
X327006868Y-253968930D01*
X326967612Y-253919074D01*
X326942634Y-253859381D01*
X326926369Y-253773580D01*
X326919538Y-253713540D01*
X326913334Y-253624230D01*
X326908374Y-253497678D01*
X326904635Y-253341522D01*
X326902091Y-253163399D01*
X326900719Y-252970947D01*
X326900494Y-252771806D01*
X326901391Y-252573612D01*
X326903388Y-252384004D01*
X326906458Y-252210620D01*
X326910579Y-252061098D01*
X326915724Y-251943076D01*
X326921872Y-251864192D01*
X326925496Y-251841000D01*
X326957227Y-251752913D01*
X327004013Y-251673947D01*
X327018527Y-251656850D01*
X327055859Y-251621859D01*
X327094496Y-251601059D01*
X327148551Y-251590846D01*
X327232137Y-251587615D01*
X327290102Y-251587493D01*
X327434345Y-251592359D01*
G37*
G36*
X327151953Y-254583032D02*
G01*
X327253502Y-254651515D01*
X327326891Y-254743449D01*
X327360843Y-254854298D01*
X327356918Y-254972985D01*
X327316681Y-255088432D01*
X327241693Y-255189563D01*
X327169669Y-255245717D01*
X327057290Y-255286990D01*
X326932977Y-255289573D01*
X326817713Y-255253469D01*
X326803983Y-255245628D01*
X326711380Y-255161963D01*
X326657613Y-255053156D01*
X326644143Y-254928470D01*
X326672431Y-254797169D01*
X326718711Y-254704938D01*
X326807075Y-254604734D01*
X326912398Y-254550649D01*
X327029187Y-254543232D01*
X327151953Y-254583032D01*
G37*
G36*
X327648671Y-257161630D02*
G01*
X327712199Y-256721359D01*
X327798306Y-256296112D01*
X327803646Y-256273547D01*
X327851291Y-256095381D01*
X327914404Y-255890773D01*
X327987927Y-255673854D01*
X328066804Y-255458751D01*
X328145978Y-255259594D01*
X328220392Y-255090512D01*
X328245727Y-255038361D01*
X328465273Y-254655431D01*
X328732511Y-254283755D01*
X329045051Y-253926078D01*
X329400502Y-253585140D01*
X329784593Y-253272595D01*
X330190447Y-252988678D01*
X330642485Y-252711052D01*
X331136329Y-252441105D01*
X331667599Y-252180225D01*
X332231916Y-251929799D01*
X332824903Y-251691215D01*
X333442180Y-251465861D01*
X334079368Y-251255125D01*
X334732089Y-251060394D01*
X335395963Y-250883055D01*
X336066613Y-250724497D01*
X336739659Y-250586108D01*
X337410722Y-250469275D01*
X338075425Y-250375386D01*
X338729387Y-250305828D01*
X339267800Y-250267185D01*
X339474129Y-250259408D01*
X339712456Y-250256356D01*
X339970754Y-250257709D01*
X340236998Y-250263144D01*
X340499159Y-250272338D01*
X340745212Y-250284969D01*
X340963132Y-250300715D01*
X341122000Y-250316883D01*
X341688348Y-250398452D01*
X342213235Y-250500172D01*
X342702388Y-250623386D01*
X343161537Y-250769435D01*
X343349957Y-250839122D01*
X343532704Y-250913224D01*
X343727719Y-250998500D01*
X343924938Y-251090024D01*
X344114298Y-251182870D01*
X344285735Y-251272113D01*
X344429187Y-251352827D01*
X344529263Y-251416339D01*
X344623897Y-251480159D01*
X344717924Y-251539950D01*
X344791261Y-251582948D01*
X344792300Y-251583507D01*
X344871529Y-251629067D01*
X344942788Y-251674889D01*
X344957400Y-251685360D01*
X345002072Y-251718150D01*
X345077678Y-251773113D01*
X345173905Y-251842770D01*
X345280436Y-251919640D01*
X345287600Y-251924800D01*
X345394703Y-252002969D01*
X345492111Y-252075924D01*
X345569434Y-252135763D01*
X345616281Y-252174580D01*
X345617800Y-252175978D01*
X345669883Y-252222763D01*
X345744454Y-252287764D01*
X345822236Y-252354246D01*
X345897045Y-252423038D01*
X345996477Y-252522516D01*
X346113894Y-252645278D01*
X346242659Y-252783924D01*
X346376135Y-252931053D01*
X346507685Y-253079264D01*
X346630672Y-253221156D01*
X346738459Y-253349329D01*
X346824409Y-253456382D01*
X346881886Y-253534914D01*
X346884179Y-253538397D01*
X346955898Y-253656738D01*
X347041267Y-253811644D01*
X347137282Y-253996491D01*
X347240939Y-254204653D01*
X347349234Y-254429505D01*
X347459162Y-254664420D01*
X347567718Y-254902774D01*
X347671900Y-255137941D01*
X347768702Y-255363295D01*
X347855120Y-255572212D01*
X347928151Y-255758066D01*
X347984789Y-255914231D01*
X348022031Y-256034082D01*
X348029477Y-256064200D01*
X348071512Y-256290766D01*
X348105725Y-256553342D01*
X348131289Y-256837621D01*
X348147377Y-257129295D01*
X348153164Y-257414060D01*
X348147823Y-257677607D01*
X348133990Y-257873522D01*
X348062027Y-258371674D01*
X347949145Y-258842685D01*
X347793857Y-259289634D01*
X347594679Y-259715603D01*
X347350125Y-260123672D01*
X347058710Y-260516921D01*
X346718948Y-260898431D01*
X346633650Y-260985000D01*
X346400223Y-261202521D01*
X346152260Y-261402724D01*
X345885131Y-261588000D01*
X345594203Y-261760736D01*
X345274846Y-261923321D01*
X344922429Y-262078144D01*
X344532321Y-262227593D01*
X344099891Y-262374059D01*
X343707161Y-262494585D01*
X343458556Y-262566267D01*
X343220007Y-262631341D01*
X342986465Y-262690663D01*
X342752884Y-262745089D01*
X342514216Y-262795477D01*
X342265415Y-262842683D01*
X342001434Y-262887564D01*
X341717224Y-262930976D01*
X341407740Y-262973776D01*
X341067934Y-263016820D01*
X340692758Y-263060966D01*
X340277167Y-263107069D01*
X339816112Y-263155987D01*
X339801200Y-263157541D01*
X339440896Y-263195802D01*
X339085194Y-263235146D01*
X338726026Y-263276556D01*
X338355325Y-263321013D01*
X337965025Y-263369499D01*
X337547058Y-263422996D01*
X337093357Y-263482484D01*
X336702400Y-263534626D01*
X336478336Y-263564308D01*
X336251107Y-263593702D01*
X336030607Y-263621579D01*
X335826731Y-263646709D01*
X335649376Y-263667862D01*
X335508437Y-263683809D01*
X335463918Y-263688512D01*
X335252976Y-263705770D01*
X335020472Y-263717362D01*
X334778328Y-263723281D01*
X334538469Y-263723522D01*
X334312817Y-263718079D01*
X334113298Y-263706945D01*
X333951835Y-263690115D01*
X333946082Y-263689286D01*
X333713580Y-263649651D01*
X333491208Y-263598836D01*
X333264259Y-263532717D01*
X333018023Y-263447168D01*
X332841600Y-263379559D01*
X332685230Y-263320449D01*
X332525537Y-263264536D01*
X332376423Y-263216388D01*
X332251790Y-263180573D01*
X332193900Y-263166769D01*
X331998651Y-263137623D01*
X331767871Y-263122151D01*
X331514980Y-263120452D01*
X331253398Y-263132624D01*
X331002212Y-263158019D01*
X330844102Y-263176393D01*
X330724168Y-263183413D01*
X330630867Y-263178155D01*
X330552659Y-263159694D01*
X330478000Y-263127107D01*
X330454000Y-263114119D01*
X330344639Y-263026803D01*
X330276679Y-262913883D01*
X330251844Y-262781477D01*
X330271856Y-262635703D01*
X330298387Y-262561638D01*
X330328470Y-262489821D01*
X330348079Y-262439393D01*
X330352400Y-262425030D01*
X330330924Y-262410430D01*
X330272029Y-262378055D01*
X330184007Y-262332285D01*
X330075152Y-262277499D01*
X330041250Y-262260736D01*
X329618568Y-262029307D01*
X329237853Y-261771558D01*
X328898446Y-261486453D01*
X328599687Y-261172952D01*
X328340917Y-260830018D01*
X328121477Y-260456614D01*
X327940707Y-260051701D01*
X327797949Y-259614242D01*
X327692542Y-259143199D01*
X327623828Y-258637535D01*
X327606701Y-258428790D01*
X327594608Y-258029725D01*
X327597833Y-257934229D01*
X328222991Y-257934229D01*
X328223947Y-258426271D01*
X328261782Y-258896159D01*
X328336101Y-259341184D01*
X328446513Y-259758635D01*
X328592624Y-260145802D01*
X328774042Y-260499975D01*
X328880356Y-260667500D01*
X329043055Y-260889298D01*
X329220243Y-261096030D01*
X329417311Y-261292173D01*
X329639649Y-261482206D01*
X329892649Y-261670607D01*
X330181702Y-261861853D01*
X330512197Y-262060424D01*
X330654817Y-262141565D01*
X331096035Y-262389210D01*
X331371309Y-262372491D01*
X331629584Y-262367702D01*
X331904106Y-262381695D01*
X332174706Y-262412650D01*
X332421216Y-262458750D01*
X332474967Y-262471973D01*
X332585109Y-262504147D01*
X332726239Y-262550580D01*
X332882536Y-262605801D01*
X333038174Y-262664341D01*
X333086703Y-262683459D01*
X333418747Y-262805469D01*
X333723910Y-262894964D01*
X334011889Y-262954682D01*
X334086200Y-262965815D01*
X334215847Y-262977458D01*
X334386794Y-262983405D01*
X334589895Y-262983969D01*
X334816007Y-262979462D01*
X335055986Y-262970197D01*
X335300688Y-262956488D01*
X335540967Y-262938648D01*
X335767681Y-262916989D01*
X335875013Y-262904589D01*
X336048423Y-262882894D01*
X336258559Y-262856156D01*
X336491808Y-262826134D01*
X336734554Y-262794588D01*
X336973182Y-262763277D01*
X337157713Y-262738815D01*
X337508518Y-262692408D01*
X337820094Y-262652057D01*
X338103479Y-262616468D01*
X338369709Y-262584343D01*
X338629820Y-262554388D01*
X338894849Y-262525307D01*
X339175833Y-262495803D01*
X339483809Y-262464581D01*
X339547200Y-262458257D01*
X340008881Y-262411562D01*
X340424650Y-262367769D01*
X340799264Y-262326112D01*
X341137476Y-262285821D01*
X341444043Y-262246130D01*
X341723720Y-262206271D01*
X341981263Y-262165476D01*
X342221427Y-262122978D01*
X342448968Y-262078009D01*
X342668640Y-262029801D01*
X342885200Y-261977587D01*
X343103403Y-261920599D01*
X343328004Y-261858068D01*
X343408000Y-261835024D01*
X343833223Y-261707020D01*
X344212797Y-261582476D01*
X344551538Y-261459044D01*
X344854262Y-261334377D01*
X345125787Y-261206124D01*
X345370929Y-261071938D01*
X345594505Y-260929470D01*
X345801332Y-260776371D01*
X345996227Y-260610294D01*
X346079442Y-260532502D01*
X346330973Y-260271636D01*
X346568708Y-259987432D01*
X346783177Y-259692426D01*
X346964908Y-259399158D01*
X347035985Y-259266149D01*
X347112802Y-259095016D01*
X347190107Y-258888507D01*
X347262913Y-258661749D01*
X347326237Y-258429871D01*
X347360354Y-258281665D01*
X347406917Y-257992441D01*
X347433150Y-257671170D01*
X347440058Y-257325988D01*
X347428646Y-256965033D01*
X347399921Y-256596443D01*
X347354886Y-256228355D01*
X347294548Y-255868905D01*
X347219911Y-255526233D01*
X347131981Y-255208474D01*
X347031763Y-254923767D01*
X346920262Y-254680249D01*
X346914013Y-254668567D01*
X346855888Y-254565026D01*
X346779871Y-254435796D01*
X346691428Y-254289572D01*
X346596025Y-254135049D01*
X346499128Y-253980922D01*
X346406204Y-253835888D01*
X346322719Y-253708640D01*
X346254138Y-253607876D01*
X346206336Y-253542800D01*
X346032493Y-253338159D01*
X345826931Y-253116955D01*
X345600733Y-252889989D01*
X345364981Y-252668062D01*
X345130755Y-252461974D01*
X344929428Y-252298200D01*
X344840793Y-252228964D01*
X344754202Y-252160663D01*
X344693170Y-252111913D01*
X344624241Y-252066617D01*
X344527537Y-252015824D01*
X344423442Y-251970199D01*
X344418801Y-251968395D01*
X344335663Y-251934943D01*
X344217388Y-251885510D01*
X344075200Y-251824880D01*
X343920324Y-251757837D01*
X343772408Y-251692894D01*
X343473637Y-251564629D01*
X343211626Y-251460828D01*
X342979926Y-251379242D01*
X342772087Y-251317623D01*
X342581661Y-251273722D01*
X342557100Y-251269060D01*
X342435007Y-251246043D01*
X342284681Y-251217055D01*
X342127664Y-251186276D01*
X342019535Y-251164746D01*
X341554780Y-251080283D01*
X341109231Y-251018623D01*
X340667015Y-250978406D01*
X340212258Y-250958275D01*
X339729087Y-250956871D01*
X339615198Y-250958989D01*
X339318909Y-250967648D01*
X339044888Y-250980567D01*
X338781055Y-250998866D01*
X338515332Y-251023666D01*
X338235640Y-251056087D01*
X337929898Y-251097249D01*
X337604100Y-251145503D01*
X336726655Y-251296423D01*
X335878429Y-251476922D01*
X335045111Y-251690389D01*
X334212390Y-251940215D01*
X334111600Y-251972872D01*
X333480046Y-252189163D01*
X332880048Y-252415009D01*
X332314189Y-252649144D01*
X331785051Y-252890302D01*
X331295217Y-253137219D01*
X330847270Y-253388628D01*
X330443791Y-253643263D01*
X330087363Y-253899860D01*
X329942540Y-254016021D01*
X329702424Y-254232102D01*
X329467887Y-254474036D01*
X329247533Y-254731371D01*
X329049963Y-254993654D01*
X328883780Y-255250431D01*
X328798067Y-255406659D01*
X328697886Y-255627493D01*
X328599850Y-255885721D01*
X328508134Y-256167976D01*
X328426914Y-256460893D01*
X328360364Y-256751106D01*
X328333286Y-256894524D01*
X328259307Y-257422743D01*
X328222991Y-257934229D01*
X327597833Y-257934229D01*
X327609036Y-257602546D01*
X327648671Y-257161630D01*
G37*
G36*
X339094925Y-255390630D02*
G01*
X339123099Y-255395961D01*
X339259052Y-255441887D01*
X339370355Y-255521033D01*
X339462680Y-255638980D01*
X339541704Y-255801310D01*
X339545790Y-255811669D01*
X339600911Y-255978540D01*
X339622894Y-256122537D01*
X339609564Y-256253998D01*
X339558747Y-256383263D01*
X339468270Y-256520670D01*
X339372451Y-256635995D01*
X339246439Y-256765443D01*
X339129895Y-256854462D01*
X339012170Y-256909268D01*
X338882614Y-256936079D01*
X338854039Y-256938652D01*
X338752995Y-256941816D01*
X338675232Y-256929972D01*
X338594202Y-256898023D01*
X338563503Y-256882849D01*
X338410708Y-256777887D01*
X338292562Y-256636515D01*
X338209907Y-256460241D01*
X338163585Y-256250573D01*
X338155113Y-256151849D01*
X338155452Y-255980286D01*
X338178344Y-255844668D01*
X338227482Y-255733772D01*
X338306556Y-255636376D01*
X338332785Y-255611598D01*
X338499318Y-255493968D01*
X338689463Y-255415854D01*
X338891803Y-255380369D01*
X339094925Y-255390630D01*
G37*
G36*
X326549041Y-262760954D02*
G01*
X326600763Y-262773278D01*
X326641206Y-262796395D01*
X326680147Y-262831474D01*
X326736688Y-262919131D01*
X326746174Y-263015135D01*
X326708966Y-263109610D01*
X326668183Y-263157865D01*
X326621570Y-263197472D01*
X326574183Y-263220516D01*
X326509494Y-263232030D01*
X326410978Y-263237046D01*
X326407833Y-263237135D01*
X326299919Y-263236894D01*
X326197661Y-263231259D01*
X326128004Y-263222248D01*
X326004609Y-263179555D01*
X325924976Y-263111282D01*
X325888839Y-263017183D01*
X325887222Y-263001760D01*
X325886476Y-262925449D01*
X325902449Y-262870719D01*
X325942374Y-262832802D01*
X326013482Y-262806932D01*
X326123004Y-262788341D01*
X326228309Y-262776921D01*
X326372603Y-262763957D01*
X326476251Y-262758241D01*
X326549041Y-262760954D01*
G37*
G36*
X332525486Y-256633494D02*
G01*
X332558334Y-256527763D01*
X332616007Y-256449009D01*
X332702443Y-256389857D01*
X332821580Y-256342930D01*
X332850156Y-256334222D01*
X333120877Y-256254940D01*
X333345346Y-256189909D01*
X333525873Y-256138466D01*
X333664769Y-256099948D01*
X333679800Y-256095879D01*
X333787110Y-256066650D01*
X333894146Y-256037052D01*
X333959200Y-256018752D01*
X334047091Y-255994609D01*
X334171231Y-255961724D01*
X334318534Y-255923471D01*
X334475916Y-255883228D01*
X334630292Y-255844369D01*
X334746600Y-255815626D01*
X334901449Y-255779883D01*
X335079733Y-255742141D01*
X335269516Y-255704607D01*
X335458864Y-255669486D01*
X335635841Y-255638984D01*
X335788511Y-255615307D01*
X335904941Y-255600660D01*
X335915000Y-255599697D01*
X336037102Y-255585074D01*
X336160182Y-255564725D01*
X336260053Y-255542724D01*
X336270600Y-255539804D01*
X336401127Y-255517934D01*
X336539748Y-255520234D01*
X336668585Y-255544744D01*
X336769762Y-255589502D01*
X336778309Y-255595484D01*
X336846356Y-255664860D01*
X336918436Y-255770762D01*
X336987152Y-255900219D01*
X337045107Y-256040258D01*
X337063270Y-256095186D01*
X337090201Y-256211138D01*
X337109355Y-256349533D01*
X337120553Y-256498685D01*
X337123618Y-256646906D01*
X337118372Y-256782511D01*
X337104639Y-256893813D01*
X337082240Y-256969124D01*
X337076696Y-256978853D01*
X337018749Y-257048577D01*
X336944676Y-257097285D01*
X336843162Y-257130159D01*
X336702894Y-257152382D01*
X336696237Y-257153132D01*
X336588891Y-257167598D01*
X336450313Y-257189879D01*
X336294253Y-257217388D01*
X336134464Y-257247535D01*
X335984698Y-257277732D01*
X335858706Y-257305392D01*
X335775300Y-257326462D01*
X335717963Y-257341266D01*
X335625963Y-257363325D01*
X335514274Y-257389094D01*
X335445100Y-257404626D01*
X335315959Y-257434208D01*
X335158706Y-257471575D01*
X334994375Y-257511670D01*
X334860900Y-257545120D01*
X334606203Y-257610988D01*
X334394699Y-257668427D01*
X334219958Y-257719891D01*
X334075553Y-257767833D01*
X333955056Y-257814707D01*
X333852037Y-257862965D01*
X333760068Y-257915063D01*
X333672722Y-257973453D01*
X333603600Y-258024994D01*
X333460515Y-258126228D01*
X333340085Y-258189122D01*
X333234667Y-258216111D01*
X333136623Y-258209635D01*
X333080828Y-258191791D01*
X333009677Y-258142335D01*
X332930910Y-258047705D01*
X332843376Y-257906314D01*
X332765825Y-257757579D01*
X332675260Y-257565059D01*
X332609132Y-257402518D01*
X332563661Y-257257693D01*
X332535065Y-257118321D01*
X332519564Y-256972138D01*
X332518512Y-256955393D01*
X332513762Y-256782233D01*
X333006700Y-256782233D01*
X333009799Y-256908766D01*
X333020339Y-256997415D01*
X333045691Y-257106553D01*
X333081973Y-257226190D01*
X333125302Y-257346337D01*
X333171794Y-257457001D01*
X333217565Y-257548192D01*
X333258734Y-257609920D01*
X333290983Y-257632200D01*
X333316465Y-257618989D01*
X333370024Y-257584979D01*
X333416787Y-257553463D01*
X333587738Y-257453035D01*
X333805178Y-257354260D01*
X334064797Y-257258997D01*
X334200500Y-257215862D01*
X334325164Y-257177877D01*
X334438989Y-257143020D01*
X334529363Y-257115166D01*
X334583518Y-257098235D01*
X334645564Y-257080307D01*
X334748827Y-257052623D01*
X334885371Y-257017148D01*
X335047260Y-256975846D01*
X335226558Y-256930682D01*
X335415331Y-256883623D01*
X335605640Y-256836633D01*
X335789552Y-256791677D01*
X335959130Y-256750721D01*
X336106439Y-256715729D01*
X336223541Y-256688667D01*
X336302503Y-256671500D01*
X336321400Y-256667884D01*
X336436071Y-256647088D01*
X336509712Y-256630064D01*
X336551400Y-256612223D01*
X336570212Y-256588981D01*
X336575225Y-256555749D01*
X336575400Y-256539538D01*
X336560236Y-256386747D01*
X336518850Y-256229528D01*
X336457393Y-256085361D01*
X336382020Y-255971725D01*
X336371327Y-255959901D01*
X336348064Y-255936973D01*
X336323578Y-255921501D01*
X336291075Y-255914302D01*
X336243761Y-255916194D01*
X336174842Y-255927995D01*
X336077524Y-255950521D01*
X335945013Y-255984590D01*
X335770514Y-256031020D01*
X335762600Y-256033136D01*
X335607151Y-256074419D01*
X335421034Y-256123396D01*
X335222805Y-256175209D01*
X335031023Y-256225001D01*
X334937100Y-256249228D01*
X334743739Y-256299391D01*
X334534531Y-256354414D01*
X334316642Y-256412347D01*
X334097237Y-256471239D01*
X333883480Y-256529139D01*
X333682537Y-256584097D01*
X333501573Y-256634162D01*
X333347753Y-256677384D01*
X333228242Y-256711812D01*
X333150204Y-256735496D01*
X333146400Y-256736727D01*
X333006700Y-256782233D01*
X332513762Y-256782233D01*
X332513525Y-256773579D01*
X332525486Y-256633494D01*
G37*
G36*
X330994739Y-256775876D02*
G01*
X331071043Y-256801924D01*
X331149250Y-256853070D01*
X331240129Y-256935638D01*
X331301275Y-256998708D01*
X331402369Y-257114320D01*
X331468292Y-257213910D01*
X331505357Y-257310781D01*
X331519876Y-257418233D01*
X331520800Y-257461297D01*
X331496231Y-257626104D01*
X331425847Y-257782806D01*
X331314630Y-257923756D01*
X331167564Y-258041311D01*
X331127100Y-258065410D01*
X331022089Y-258106319D01*
X330894836Y-258130038D01*
X330763900Y-258135383D01*
X330647840Y-258121172D01*
X330587081Y-258099835D01*
X330466009Y-258014210D01*
X330376454Y-257895720D01*
X330316191Y-257740452D01*
X330285452Y-257568700D01*
X330282394Y-257488868D01*
X330294313Y-257411966D01*
X330325130Y-257327985D01*
X330378768Y-257226918D01*
X330459150Y-257098757D01*
X330484936Y-257059728D01*
X330592202Y-256920870D01*
X330700090Y-256828761D01*
X330814156Y-256779594D01*
X330909569Y-256768600D01*
X330994739Y-256775876D01*
G37*
D13*
X129600000Y-204841000D02*
X126940000Y-204841000D01*
X129600000Y-204841000D02*
X129600000Y-197161000D01*
X126940000Y-204841000D02*
X126940000Y-197161000D01*
X129600000Y-206111000D02*
X129600000Y-207441000D01*
X129600000Y-197161000D02*
X126940000Y-197161000D01*
X129600000Y-207441000D02*
X128270000Y-207441000D01*
M02*
